# 3ds Max Wavefront OBJ Exporter v0.99 - (c)2007 guruware
# File Created: 02.06.2022 18:28:13

mtllib Loading Icon.mtl

#
# object Box001
#

v  -15.0000 50.0000 2.5334
v  15.0000 50.0000 2.5334
v  15.0000 50.0000 -2.8021
v  -15.0000 50.0000 -2.8021
v  -15.0000 17.0128 2.5334
v  15.0000 17.0128 2.5334
v  15.0000 17.0128 -2.8021
v  -15.0000 17.0128 -2.8021
v  0.0000 6.3275 -2.8021
v  0.0000 6.3275 2.5334
# 10 vertices

vn -0.5774 0.5774 0.5774
vn 0.5774 0.5774 0.5774
vn 0.5774 0.5774 -0.5774
vn -0.5774 0.5774 -0.5774
vn -0.6995 -0.3605 0.6171
vn 0.6995 -0.3605 0.6171
vn 0.6995 -0.3605 -0.6171
vn -0.6995 -0.3605 -0.6171
vn 0.0000 -0.8023 -0.5969
vn 0.0000 -0.8023 0.5969
# 10 vertex normals

vt 0.0000 0.0000 0.0000
vt 1.0000 0.0000 0.0000
vt 1.0000 1.0000 0.0000
vt 0.0000 1.0000 0.0000
vt 0.5000 1.0000 0.0000
vt 0.5000 0.0000 0.0000
# 6 texture coords

o Box001
g Box001
usemtl wire_255255255
s 4
f 1/1/1 2/2/2 3/3/3 4/4/4 
s 8
f 5/1/5 6/2/6 2/3/2 1/4/1 
s 16
f 6/1/6 7/2/7 3/3/3 2/4/2 
s 32
f 7/1/7 8/2/8 4/3/4 3/4/3 
s 64
f 8/1/8 5/2/5 1/3/1 4/4/4 
s off
f 5/2/5 8/3/8 9/5/9 10/6/10 
f 8/3/8 7/4/7 9/5/9 
f 7/4/7 6/1/6 10/6/10 9/5/9 
f 6/1/6 5/2/5 10/6/10 
# 7 polygons - 2 triangles

#
# object Box002
#

v  -10.3785 53.6059 4.9819
v  10.3785 53.6059 4.9819
v  10.3785 53.6059 -4.9849
v  -10.3785 53.6059 -4.9849
v  -10.3785 30.7821 4.9819
v  10.3785 30.7821 4.9819
v  10.3785 30.7821 -4.9849
v  -10.3785 30.7821 -4.9849
v  0.0000 23.3889 -4.9849
v  0.0000 23.3889 4.9819
# 10 vertices

vn -0.5774 0.5774 0.5774
vn 0.5774 0.5774 0.5774
vn 0.5774 0.5774 -0.5774
vn -0.5774 0.5774 -0.5774
vn -0.6995 -0.3605 0.6171
vn 0.6995 -0.3605 0.6171
vn 0.6995 -0.3605 -0.6171
vn -0.6995 -0.3605 -0.6171
vn 0.0000 -0.8023 -0.5969
vn 0.0000 -0.8023 0.5969
# 10 vertex normals

vt 0.0000 0.0000 0.0000
vt 1.0000 0.0000 0.0000
vt 1.0000 1.0000 0.0000
vt 0.0000 1.0000 0.0000
vt 0.5000 1.0000 0.0000
vt 0.5000 0.0000 0.0000
# 6 texture coords

o Box002
g Box002
usemtl wire_006135006
s 4
f 11/7/11 12/8/12 13/9/13 14/10/14 
s 8
f 15/7/15 16/8/16 12/9/12 11/10/11 
s 16
f 16/7/16 17/8/17 13/9/13 12/10/12 
s 32
f 17/7/17 18/8/18 14/9/14 13/10/13 
s 64
f 18/7/18 15/8/15 11/9/11 14/10/14 
s off
f 15/8/15 18/9/18 19/11/19 20/12/20 
f 18/9/18 17/10/17 19/11/19 
f 17/10/17 16/7/16 20/12/20 19/11/19 
f 16/7/16 15/8/15 20/12/20 
# 7 polygons - 2 triangles

